<svg xmlns="http://www.w3.org/2000/svg" width="128" height="128" viewBox="0 0 128 128">
  <rect width="128" height="128" rx="28" ry="28" fill="#4284CA" />

  <g transform="scale(0.25)">
    <path fill="#ffffff" transform="translate(357,130)" d="M0 0 C16.83 0 33.66 0 51 0 C51 83.49 51 166.98 51 253 C32.52 253 14.04 253 -5 253 C-5.33 193.6 -5.66 134.2 -6 73 C-17.61898465 83.87711525 -17.61898465 83.87711525 -29 95 C-30.27529263 96.14352808 -31.56342383 97.27327602 -32.875 98.375 C-35.8846753 100.96634205 -38.71088616 103.67254783 -41.5 106.5 C-44.22829407 109.26560408 -46.98516834 111.91287031 -49.9375 114.4375 C-53.1103592 117.15619248 -56.06338382 120.02751675 -59 123 C-62.52056144 126.56349512 -66.12849564 129.90393883 -69.9375 133.15234375 C-73.2247866 136.09720466 -76.25798115 139.28914589 -79.3125 142.47265625 C-81.5339793 144.56175088 -83.72667146 146.34736127 -86.16796875 148.15795898 C-86.88621826 148.69202866 -87.60446777 149.22609833 -88.34448242 149.77635193 C-88.89080322 150.18015579 -89.43712402 150.58395966 -90 151 C-90.30316286 142.6197916 -90.53313762 134.24192459 -90.67355824 125.85756397 C-90.74100877 121.96270513 -90.83221751 118.07163349 -90.98071289 114.17895508 C-92.04615066 85.51446388 -92.04615066 85.51446388 -85.5019989 78.2297821 C-82.81735581 75.81381696 -80.06517542 73.92012799 -77 72 C-75.5397285 70.75539936 -74.09517061 69.49129717 -72.6875 68.1875 C-72.07261719 67.66542969 -71.45773437 67.14335937 -70.82421875 66.60546875 C-68.08211814 64.19218534 -65.56175172 61.5705291 -63 58.96875 C-60.43694772 56.44574541 -57.72654176 54.12437183 -55 51.78125 C-52.21114467 49.29742572 -49.62313017 46.63288563 -47.00390625 43.97265625 C-44.41753849 41.42662171 -41.6846472 39.07978443 -38.93359375 36.71484375 C-37.04505403 35.03995701 -35.26844352 33.30052413 -33.5 31.5 C-31.10946833 29.06610268 -28.64953738 26.78644441 -26.0625 24.5625 C-22.53505269 21.52440954 -19.27251033 18.29247127 -16.0078125 14.9765625 C-13.46044718 12.46884489 -10.78351712 10.14314537 -8.0546875 7.8359375 C-5.26148833 5.34011315 -2.64868843 2.64868843 0 0 Z" />
    <path fill="#ffffff" transform="translate(105,130)" d="M0 0 C16.83 0 33.66 0 51 0 C57.93 6.93 57.93 6.93 65 14 C68.05315475 16.70373169 68.05315475 16.70373169 71.14453125 19.36328125 C74.16962078 22.03172865 76.94951366 24.94197275 79.78125 27.8125 C81.79430632 29.79720342 83.85446403 31.66096916 86 33.5 C89.79358733 36.75164628 93.27392647 40.25713094 96.78125 43.8125 C98.79430632 45.79720342 100.85446403 47.66096916 103 49.5 C106.79358733 52.75164628 110.27392647 56.25713094 113.78125 59.8125 C116.40641873 62.40069453 119.16684107 64.7861004 121.96484375 67.18359375 C124.99074371 69.88425302 127.80494182 72.78202891 130.62890625 75.69140625 C132.76314985 77.95678832 132.76314985 77.95678832 134.73876953 79.00978088 C137.03897361 80.48296367 138.42860282 81.74787782 140 84 C140.99818374 89.00243268 140.8158991 93.9525406 140.68359375 99.0234375 C140.67052516 100.49457436 140.66056694 101.96574185 140.65357971 103.43692017 C140.62695145 107.29450758 140.55828047 111.15022689 140.48065186 115.00708008 C140.40882576 118.94847341 140.3770273 122.890171 140.34179688 126.83203125 C140.26689905 134.55553585 140.14755537 142.27750541 140 150 C136.12050284 148.20467891 133.73038706 145.89932945 130.75 142.8125 C126.96206278 138.93386391 123.08522196 135.26045465 118.9609375 131.7421875 C115.90633647 129.02833878 113.08338457 126.09136248 110.21484375 123.18359375 C108.22340539 121.22025329 106.18697422 119.37920331 104.0625 117.5625 C100.8896408 114.84380752 97.93661618 111.97248325 95 109 C92.08373397 106.04816975 89.15394165 103.19611141 86 100.5 C81.92656519 97.01787024 78.20964882 93.22444574 74.4453125 89.4140625 C72.31468555 87.31066401 70.14519577 85.32469755 67.875 83.375 C63.7416189 79.7749584 59.87589595 75.87589595 56 72 C55.67 131.73 55.34 191.46 55 253 C36.85 253 18.7 253 0 253 C0 169.51 0 86.02 0 0 Z" />
  </g>
</svg>
